<?xml version="1.0" encoding="utf-8"?>
<!-- Generator: Adobe Illustrator 17.1.0, SVG Export Plug-In . SVG Version: 6.00 Build 0)  -->
<!DOCTYPE svg PUBLIC "-//W3C//DTD SVG 1.1//EN" "http://www.w3.org/Graphics/SVG/1.1/DTD/svg11.dtd">
<svg version="1.1" xmlns="http://www.w3.org/2000/svg" xmlns:xlink="http://www.w3.org/1999/xlink" x="0px" y="0px" width="399px"
	 height="400px" viewBox="0 0 399 400" style="enable-background:new 0 0 399 400;" xml:space="preserve">
<style type="text/css">
	.st0{fill:#186078;}
	.st1{fill:#189A99;}
	.st2{fill:#DBC287;}
	.st3{fill:none;stroke:#D35400;stroke-width:4;stroke-linecap:round;stroke-miterlimit:10;}
	.st4{fill:#D35400;}
	.st5{fill:#F7F5F5;}
	.st6{fill:#E2E1E1;}
	.st7{fill:#FFFFFF;}
	.st8{fill:#414042;}
	.st9{fill:#59585A;}
	.st10{fill:#D1D3D4;}
	.st11{fill:#BF9A4F;}
	.st12{fill:#414042;stroke:#414042;stroke-miterlimit:10;}
	.st13{opacity:0.29;}
	.st14{clip-path:url(#SVGID_2_);}
	.st15{clip-path:url(#SVGID_4_);}
	.st16{fill:#4890A8;}
	.st17{opacity:0.39;}
	.st18{clip-path:url(#SVGID_6_);}
	.st19{fill:#DA846D;}
	.st20{clip-path:url(#SVGID_8_);}
	.st21{clip-path:url(#SVGID_10_);}
	.st22{clip-path:url(#SVGID_12_);}
	.st23{fill:#58595B;}
	.st24{clip-path:url(#SVGID_14_);}
	.st25{clip-path:url(#SVGID_16_);}
	.st26{fill:none;stroke:#186078;stroke-width:4;stroke-linecap:round;stroke-miterlimit:10;}
	.st27{clip-path:url(#SVGID_18_);}
	.st28{clip-path:url(#SVGID_20_);}
	.st29{clip-path:url(#SVGID_22_);}
	.st30{clip-path:url(#SVGID_24_);}
	.st31{clip-path:url(#SVGID_26_);}
	.st32{clip-path:url(#SVGID_28_);}
	.st33{clip-path:url(#SVGID_30_);}
	.st34{clip-path:url(#SVGID_32_);}
	.st35{fill:#BDC3C7;}
	.st36{fill:#444344;}
	.st37{fill:#4D4B4C;}
	.st38{fill:#646664;}
	.st39{fill:#807F7F;}
	.st40{fill:#929190;}
	.st41{display:none;}
	.st42{display:inline;}
</style>
<g id="laptop">
</g>
<g id="page">
</g>
<g id="page_elements">
	<circle class="st4" cx="60.2" cy="238.2" r="6.2"/>
	<circle class="st0" cx="206.6" cy="212.3" r="6.2"/>
	<circle class="st2" cx="338.7" cy="268.4" r="6.2"/>
	<g>
		<path class="st10" d="M298,162.3c0,0.7-0.5,1.7-1.7,1.7H114.8c-1.1,0-2.8-1-2.8-1.7V158c0-0.7,1.6-1,2.8-1h181.6
			c1.1,0,1.7,0.2,1.7,1V162.3z"/>
	</g>
	<g>
		<g>
			<path class="st1" d="M303,140c0,3.8-3.1,7-7,7H118c-3.8,0-7-3.1-7-7V41c0-3.8,3.1-7,7-7H296c3.8,0,7,3.1,7,7V140z"/>
		</g>
		<g>
			<path class="st10" d="M296,38c1.4,0,2,1.2,2,2.6v98.8c0,1.4-0.6,2.6-2,2.6H117.5c-1.4,0-2.5-1.3-2.5-2.6V40.6
				c0-1.4,1.1-2.6,2.5-2.6H296 M296,29H117.5c-6.3,0-11.5,5.3-11.5,11.6v98.8c0,6.3,5.1,11.6,11.5,11.6H296c6.3,0,11-5.3,11-11.6
				V40.6C307,34.3,302.4,29,296,29L296,29z"/>
		</g>
	</g>
	<g>
		<path class="st5" d="M278,42.5c0-0.9-0.7-1.5-1.5-1.5H133.5c-0.9,0-1.5,0.7-1.5,1.5v93.9c0,0.9,0.7,1.5,1.5,1.5h142.9
			c0.9,0,1.5-0.7,1.5-1.5V42.5z"/>
	</g>
	<g>
		<path class="st6" d="M276.7,41H133.8c-0.9,0-1.8,0.9-1.8,1.8V49h146v-6.2C278,41.9,277.6,41,276.7,41z"/>
	</g>
	<path class="st7" d="M274,46.3c0,0.3,0.4,0.7,0.2,0.7H148.3c-0.3,0-1.3-0.4-1.3-0.7v-2.4c0-0.3,1-0.9,1.3-0.9h125.9
		c0.3,0-0.2,0.6-0.2,0.9V46.3z"/>
	<g>
		<path class="st23" d="M274,88.5c0,0.3-0.2,0.5-0.5,0.5h-137c-0.3,0-0.5-0.2-0.5-0.5v-36c0-0.3,0.2-0.5,0.5-0.5h137
			c0.3,0,0.5,0.2,0.5,0.5V88.5z"/>
	</g>
	<g>
		<path class="st23" d="M172,119.5c0,0.2,0.3,0.5,0,0.5h-35.1c-0.3,0-0.9-0.3-0.9-0.5V95.2c0-0.2,0.7-0.2,0.9-0.2H172
			c0.3,0,0,0,0,0.2V119.5z"/>
	</g>
	<g>
		<path class="st23" d="M223,119.5c0,0.2-0.1,0.5-0.4,0.5h-35.1c-0.3,0-1.5-0.3-1.5-0.5V95.2c0-0.2,1.2-0.2,1.5-0.2h35.1
			c0.3,0,0.4,0,0.4,0.2V119.5z"/>
	</g>
	<g>
		<path class="st23" d="M274,119.5c0,0.2-0.1,0.5-0.4,0.5h-35.1c-0.3,0-0.6-0.3-0.6-0.5V95.2c0-0.2,0.3-0.2,0.6-0.2h35.1
			c0.3,0,0.4,0,0.4,0.2V119.5z"/>
	</g>
	<g>
		<g>
			<rect x="136" y="122" class="st23" width="23" height="1"/>
		</g>
		<g>
			<rect x="136" y="125" class="st23" width="36" height="1"/>
		</g>
		<g>
			<rect x="136" y="129" class="st23" width="36" height="1"/>
		</g>
		<g>
			<rect x="136" y="132" class="st23" width="36" height="1"/>
		</g>
	</g>
	<g>
		<g>
			<rect x="187" y="122" class="st23" width="23" height="1"/>
		</g>
		<g>
			<rect x="187" y="125" class="st23" width="36" height="1"/>
		</g>
		<g>
			<rect x="187" y="129" class="st23" width="36" height="1"/>
		</g>
		<g>
			<rect x="187" y="132" class="st23" width="36" height="1"/>
		</g>
	</g>
	<g>
		<g>
			<rect x="238" y="122" class="st23" width="23" height="1"/>
		</g>
		<g>
			<rect x="238" y="125" class="st23" width="36" height="1"/>
		</g>
		<g>
			<rect x="238" y="129" class="st23" width="36" height="1"/>
		</g>
		<g>
			<rect x="238" y="132" class="st23" width="36" height="1"/>
		</g>
	</g>
	<path class="st4" d="M172,119.5c0,0.2,0.3,0.5,0,0.5h-35.1c-0.3,0-0.9-0.3-0.9-0.5V95.2c0-0.2,0.7-0.2,0.9-0.2H172c0.3,0,0,0,0,0.2
		V119.5z"/>
	<path class="st0" d="M223,119.5c0,0.2-0.1,0.5-0.4,0.5h-35.1c-0.3,0-1.5-0.3-1.5-0.5V95.2c0-0.2,1.2-0.2,1.5-0.2h35.1
		c0.3,0,0.4,0,0.4,0.2V119.5z"/>
	<path class="st2" d="M274,119.5c0,0.2-0.1,0.5-0.4,0.5h-35.1c-0.3,0-0.6-0.3-0.6-0.5V95.2c0-0.2,0.3-0.2,0.6-0.2h35.1
		c0.3,0,0.4,0,0.4,0.2V119.5z"/>
	<line class="st26" x1="206.8" y1="213.5" x2="206.4" y2="105"/>
	<g>
		<path class="st2" d="M338,270.4c-1.1,0-2-0.9-2-2v-154h-91.8c-1.1,0-2-0.9-2-2s0.9-2,2-2H340v158C340,269.5,339.1,270.4,338,270.4
			z"/>
	</g>
	<g class="st17">
		<defs>
			<polygon id="SVGID_17_" class="st17" points="307,167.3 206.2,167.7 206.2,26 307,29 			"/>
		</defs>
		<clipPath id="SVGID_2_">
			<use xlink:href="#SVGID_17_"  style="overflow:visible;"/>
		</clipPath>
		<g class="st14">
			<g>
				<path class="st10" d="M298,162.3c0,0.7-0.5,1.7-1.7,1.7H114.8c-1.1,0-2.8-1-2.8-1.7V158c0-0.7,1.6-1,2.8-1h181.6
					c1.1,0,1.7,0.2,1.7,1V162.3z"/>
			</g>
			<g>
				<g>
					<path class="st1" d="M303,140c0,3.8-3.1,7-7,7H118c-3.8,0-7-3.1-7-7V41c0-3.8,3.1-7,7-7H296c3.8,0,7,3.1,7,7V140z"/>
				</g>
				<g>
					<path class="st10" d="M296,38c1.4,0,2,1.2,2,2.6v98.8c0,1.4-0.6,2.6-2,2.6H117.5c-1.4,0-2.5-1.3-2.5-2.6V40.6
						c0-1.4,1.1-2.6,2.5-2.6H296 M296,29H117.5c-6.3,0-11.5,5.3-11.5,11.6v98.8c0,6.3,5.1,11.6,11.5,11.6H296c6.3,0,11-5.3,11-11.6
						V40.6C307,34.3,302.4,29,296,29L296,29z"/>
				</g>
			</g>
			<g>
				<path class="st5" d="M278,42.5c0-0.9-0.7-1.5-1.5-1.5H133.5c-0.9,0-1.5,0.7-1.5,1.5v93.9c0,0.9,0.7,1.5,1.5,1.5h142.9
					c0.9,0,1.5-0.7,1.5-1.5V42.5z"/>
			</g>
			<g>
				<path class="st6" d="M276.7,41H133.8c-0.9,0-1.8,0.9-1.8,1.8V49h146v-6.2C278,41.9,277.6,41,276.7,41z"/>
			</g>
			<path class="st7" d="M274,46.3c0,0.3,0.4,0.7,0.2,0.7H148.3c-0.3,0-1.3-0.4-1.3-0.7v-2.4c0-0.3,1-0.9,1.3-0.9h125.9
				c0.3,0-0.2,0.6-0.2,0.9V46.3z"/>
			<g>
				<path class="st23" d="M274,88.5c0,0.3-0.2,0.5-0.5,0.5h-137c-0.3,0-0.5-0.2-0.5-0.5v-36c0-0.3,0.2-0.5,0.5-0.5h137
					c0.3,0,0.5,0.2,0.5,0.5V88.5z"/>
			</g>
			<g>
				<path class="st23" d="M172,119.5c0,0.2,0.3,0.5,0,0.5h-35.1c-0.3,0-0.9-0.3-0.9-0.5V95.2c0-0.2,0.7-0.2,0.9-0.2H172
					c0.3,0,0,0,0,0.2V119.5z"/>
			</g>
			<g>
				<path class="st23" d="M223,119.5c0,0.2-0.1,0.5-0.4,0.5h-35.1c-0.3,0-1.5-0.3-1.5-0.5V95.2c0-0.2,1.2-0.2,1.5-0.2h35.1
					c0.3,0,0.4,0,0.4,0.2V119.5z"/>
			</g>
			<g>
				<path class="st23" d="M274,119.5c0,0.2-0.1,0.5-0.4,0.5h-35.1c-0.3,0-0.6-0.3-0.6-0.5V95.2c0-0.2,0.3-0.2,0.6-0.2h35.1
					c0.3,0,0.4,0,0.4,0.2V119.5z"/>
			</g>
			<g>
				<g>
					<rect x="136" y="122" class="st23" width="23" height="1"/>
				</g>
				<g>
					<rect x="136" y="125" class="st23" width="36" height="1"/>
				</g>
				<g>
					<rect x="136" y="129" class="st23" width="36" height="1"/>
				</g>
				<g>
					<rect x="136" y="132" class="st23" width="36" height="1"/>
				</g>
			</g>
			<g>
				<g>
					<rect x="187" y="122" class="st23" width="23" height="1"/>
				</g>
				<g>
					<rect x="187" y="125" class="st23" width="36" height="1"/>
				</g>
				<g>
					<rect x="187" y="129" class="st23" width="36" height="1"/>
				</g>
				<g>
					<rect x="187" y="132" class="st23" width="36" height="1"/>
				</g>
			</g>
			<g>
				<g>
					<rect x="238" y="122" class="st23" width="23" height="1"/>
				</g>
				<g>
					<rect x="238" y="125" class="st23" width="36" height="1"/>
				</g>
				<g>
					<rect x="238" y="129" class="st23" width="36" height="1"/>
				</g>
				<g>
					<rect x="238" y="132" class="st23" width="36" height="1"/>
				</g>
			</g>
			<path class="st4" d="M172,119.5c0,0.2,0.3,0.5,0,0.5h-35.1c-0.3,0-0.9-0.3-0.9-0.5V95.2c0-0.2,0.7-0.2,0.9-0.2H172
				c0.3,0,0,0,0,0.2V119.5z"/>
			<path class="st0" d="M223,119.5c0,0.2-0.1,0.5-0.4,0.5h-35.1c-0.3,0-1.5-0.3-1.5-0.5V95.2c0-0.2,1.2-0.2,1.5-0.2h35.1
				c0.3,0,0.4,0,0.4,0.2V119.5z"/>
			<path class="st2" d="M274,119.5c0,0.2-0.1,0.5-0.4,0.5h-35.1c-0.3,0-0.6-0.3-0.6-0.5V95.2c0-0.2,0.3-0.2,0.6-0.2h35.1
				c0.3,0,0.4,0,0.4,0.2V119.5z"/>
			<line class="st26" x1="206.8" y1="213.5" x2="206.4" y2="105"/>
			<g>
				<path class="st2" d="M338,270.4c-1.1,0-2-0.9-2-2v-154h-91.8c-1.1,0-2-0.9-2-2s0.9-2,2-2H340v158
					C340,269.5,339.1,270.4,338,270.4z"/>
			</g>
			<g class="st17">
				<defs>
					<rect id="SVGID_19_" x="206.2" y="141.8" class="st17" width="18.8" height="36.4"/>
				</defs>
				<clipPath id="SVGID_4_">
					<use xlink:href="#SVGID_19_"  style="overflow:visible;"/>
				</clipPath>
				<g class="st15">
					<g>
						<circle class="st0" cx="206.4" cy="159.2" r="15.6"/>
					</g>
					<path class="st16" d="M211.9,167.3h-11.1c-0.3,0-0.5-0.2-0.5-0.5v-10.6h0.5l0,0h4c0.3,0,0.5-0.2,0.5-0.5v-2.5v-1.5v-0.5h6.6
						c0.3,0,0.5,0.2,0.5,0.5v15.1C212.4,167.1,212.2,167.3,211.9,167.3L211.9,167.3z M204.4,151.2v2v2h-4L204.4,151.2L204.4,151.2z"
						/>
				</g>
			</g>
		</g>
	</g>
	<g>
		<circle class="st0" cx="206.4" cy="159.2" r="15.6"/>
	</g>
	<path class="st16" d="M211.9,167.3h-11.1c-0.3,0-0.5-0.2-0.5-0.5v-10.6h0.5l0,0h4c0.3,0,0.5-0.2,0.5-0.5v-2.5v-1.5v-0.5h6.6
		c0.3,0,0.5,0.2,0.5,0.5v15.1C212.4,167.1,212.2,167.3,211.9,167.3L211.9,167.3z M204.4,151.2v2v2h-4L204.4,151.2L204.4,151.2z"/>
	<g class="st17">
		<defs>
			<rect id="SVGID_21_" x="206.2" y="141.8" class="st17" width="18.8" height="36.4"/>
		</defs>
		<clipPath id="SVGID_6_">
			<use xlink:href="#SVGID_21_"  style="overflow:visible;"/>
		</clipPath>
		<g class="st18">
			<g>
				<circle class="st0" cx="206.4" cy="159.2" r="15.6"/>
			</g>
			<path class="st16" d="M211.9,167.3h-11.1c-0.3,0-0.5-0.2-0.5-0.5v-10.6h0.5l0,0h4c0.3,0,0.5-0.2,0.5-0.5v-2.5v-1.5v-0.5h6.6
				c0.3,0,0.5,0.2,0.5,0.5v15.1C212.4,167.1,212.2,167.3,211.9,167.3L211.9,167.3z M204.4,151.2v2v2h-4L204.4,151.2L204.4,151.2z"/>
		</g>
	</g>
	<g>
		<g>
			<circle class="st16" cx="206.5" cy="259.1" r="44.4"/>
			<g>
				<path class="st0" d="M179.9,273c3.7,0,7.1-1.3,9.7-3.5c-3.7-4-5.9-9.3-5.9-15.2c0-3.6,0.9-7,2.3-10c-1.9-0.8-3.9-1.3-6.1-1.3
					c-8.3,0-15,6.7-15,15C164.8,266.3,171.6,273,179.9,273z"/>
				<path class="st0" d="M226.4,244.3c1.5,3,2.3,6.4,2.3,10c0,5.9-2.3,11.2-5.9,15.2c2.6,2.2,6,3.5,9.7,3.5c8.3,0,15-6.7,15-15
					c0-8.3-6.7-15-15-15C230.3,243,228.2,243.4,226.4,244.3z"/>
				<path class="st0" d="M176.1,276.8c-3.2,0.2-6.7,0.7-9.8,1.4c2.8,5.8,6.7,10.9,11.6,14.9L176.1,276.8z"/>
				<path class="st0" d="M230.5,296.5l2-16c0,0-15.1-3.8-26.3-3.8c-11.3,0-26.3,3.8-26.3,3.8l1.9,15.5c7.1,4.7,15.5,7.5,24.7,7.5
					C215.3,303.5,223.6,300.9,230.5,296.5z"/>
				<path class="st0" d="M236.2,277.2l-1.8,16.5c4.8-3.9,8.8-8.7,11.6-14.3C243.2,278.6,239.7,277.7,236.2,277.2z"/>
				<circle class="st0" cx="206.2" cy="254.2" r="18.8"/>
			</g>
		</g>
		<g class="st17">
			<defs>
				<rect id="SVGID_23_" x="206.5" y="211.6" class="st17" width="48.8" height="96.7"/>
			</defs>
			<clipPath id="SVGID_8_">
				<use xlink:href="#SVGID_23_"  style="overflow:visible;"/>
			</clipPath>
			<g class="st20">
				<circle class="st16" cx="206.5" cy="259.1" r="44.4"/>
				<g>
					<path class="st0" d="M179.9,273c3.7,0,7.1-1.3,9.7-3.5c-3.7-4-5.9-9.3-5.9-15.2c0-3.6,0.9-7,2.3-10c-1.9-0.8-3.9-1.3-6.1-1.3
						c-8.3,0-15,6.7-15,15C164.8,266.3,171.6,273,179.9,273z"/>
					<path class="st0" d="M226.4,244.3c1.5,3,2.3,6.4,2.3,10c0,5.9-2.3,11.2-5.9,15.2c2.6,2.2,6,3.5,9.7,3.5c8.3,0,15-6.7,15-15
						c0-8.3-6.7-15-15-15C230.3,243,228.2,243.4,226.4,244.3z"/>
					<path class="st0" d="M176.1,276.8c-3.2,0.2-6.7,0.7-9.8,1.4c2.8,5.8,6.7,10.9,11.6,14.9L176.1,276.8z"/>
					<path class="st0" d="M230.5,296.5l2-16c0,0-15.1-3.8-26.3-3.8c-11.3,0-26.3,3.8-26.3,3.8l1.9,15.5c7.1,4.7,15.5,7.5,24.7,7.5
						C215.3,303.5,223.6,300.9,230.5,296.5z"/>
					<path class="st0" d="M236.2,277.2l-1.8,16.5c4.8-3.9,8.8-8.7,11.6-14.3C243.2,278.6,239.7,277.7,236.2,277.2z"/>
					<circle class="st0" cx="206.2" cy="254.2" r="18.8"/>
				</g>
			</g>
		</g>
	</g>
	<g>
		<g>
			<circle class="st11" cx="338.6" cy="308" r="44.4"/>
			<path class="st2" d="M344.7,332.7c3.4-2.1,6.1-8.1,7.5-12.9c0,0,0,0,0,0c-0.2,0,3.2-3.8,3.2-8.4c0-4.1,0.3-7.5-2.1-8.2
				c0-0.1,0-0.1,0-0.2c0-5.2-2.7-9.7-6.7-12.3c-1-2.6-4.2-4.5-8-4.5c-3.8,0-7,1.9-8,4.5c-4,2.6-6.7,7.1-6.7,12.3c0,0.1,0,0.1,0,0.2
				c-2.4,0.8-2.1,4.2-2.1,8.2c0,4.6,3,8.4,3.2,8.4c0,0,0,0,0,0c1.4,4.8,4.1,10.8,7.5,12.9c-11,1-20.1,3.1-24.5,7.4
				c8,7.6,18.7,12.3,30.6,12.3c11.9,0,22.7-4.7,30.6-12.3C364.8,335.7,355.7,333.7,344.7,332.7z"/>
		</g>
		<g class="st13">
			<defs>
				<rect id="SVGID_25_" x="338.6" y="261.5" class="st13" width="49.5" height="104.1"/>
			</defs>
			<clipPath id="SVGID_10_">
				<use xlink:href="#SVGID_25_"  style="overflow:visible;"/>
			</clipPath>
			<g class="st21">
				<circle class="st11" cx="338.6" cy="308" r="44.4"/>
				<path class="st2" d="M344.7,332.7c3.4-2.1,6.1-8.1,7.5-12.9c0,0,0,0,0,0c-0.2,0,3.2-3.8,3.2-8.4c0-4.1,0.3-7.5-2.1-8.2
					c0-0.1,0-0.1,0-0.2c0-5.2-2.7-9.7-6.7-12.3c-1-2.6-4.2-4.5-8-4.5c-3.8,0-7,1.9-8,4.5c-4,2.6-6.7,7.1-6.7,12.3c0,0.1,0,0.1,0,0.2
					c-2.4,0.8-2.1,4.2-2.1,8.2c0,4.6,3,8.4,3.2,8.4c0,0,0,0,0,0c1.4,4.8,4.1,10.8,7.5,12.9c-11,1-20.1,3.1-24.5,7.4
					c8,7.6,18.7,12.3,30.6,12.3c11.9,0,22.7-4.7,30.6-12.3C364.8,335.7,355.7,333.7,344.7,332.7z"/>
			</g>
		</g>
	</g>
	<g>
		<g>
			<g>
				<circle class="st2" cx="338.7" cy="237.6" r="15.6"/>
			</g>
			<path class="st11" d="M328.5,230.3v15.5h19v-15.5H328.5z M346.4,244.5h-16.7v-13.1h16.7V244.5z M341.6,234.4c0,1,0.8,1.8,1.8,1.8
				c1,0,1.8-0.8,1.8-1.8s-0.8-1.8-1.8-1.8C342.4,232.6,341.6,233.4,341.6,234.4z M345.2,243.4h-14.3l3.6-9.5l4.8,6l2.4-1.8
				L345.2,243.4z"/>
		</g>
		<g class="st17">
			<defs>
				<rect id="SVGID_27_" x="338.1" y="218.5" class="st17" width="20.7" height="38.4"/>
			</defs>
			<clipPath id="SVGID_12_">
				<use xlink:href="#SVGID_27_"  style="overflow:visible;"/>
			</clipPath>
			<g class="st22">
				<g>
					<circle class="st2" cx="338.7" cy="237.6" r="15.6"/>
				</g>
				<path class="st11" d="M328.5,230.3v15.5h19v-15.5H328.5z M346.4,244.5h-16.7v-13.1h16.7V244.5z M341.6,234.4
					c0,1,0.8,1.8,1.8,1.8c1,0,1.8-0.8,1.8-1.8s-0.8-1.8-1.8-1.8C342.4,232.6,341.6,233.4,341.6,234.4z M345.2,243.4h-14.3l3.6-9.5
					l4.8,6l2.4-1.8L345.2,243.4z"/>
			</g>
		</g>
	</g>
	<polyline class="st3" points="60.2,235.9 60.2,109.2 154,109.2 	"/>
	<g>
		<circle class="st4" cx="61.3" cy="178.7" r="15.6"/>
	</g>
	<g id="PLAY_2_">
		<g id="PLAY_3_">
			<g>
				<path class="st19" d="M69.2,178.7c0-0.5-0.3-1-0.7-1.3l0,0l-10.7-6.3c0,0,0,0,0,0l0,0l0,0c-0.2-0.1-0.5-0.2-0.7-0.2
					c-0.8,0-1.5,0.7-1.5,1.5V185c0,0.8,0.7,1.5,1.5,1.5c0.3,0,0.5-0.1,0.7-0.2l0,0l0,0c0,0,0,0,0,0l10.7-6.3l0,0
					C69,179.7,69.2,179.2,69.2,178.7z"/>
			</g>
		</g>
	</g>
	<g class="st17">
		<defs>
			<rect id="SVGID_29_" x="43.5" y="161.8" class="st17" width="17.8" height="37.8"/>
		</defs>
		<clipPath id="SVGID_14_">
			<use xlink:href="#SVGID_29_"  style="overflow:visible;"/>
		</clipPath>
		<g class="st24">
			<g>
				<circle class="st4" cx="61.3" cy="178.7" r="15.6"/>
			</g>
			<g id="PLAY_1_">
				<g id="PLAY">
					<g>
						<path class="st19" d="M69.2,178.7c0-0.5-0.3-1-0.7-1.3l0,0l-10.7-6.3c0,0,0,0,0,0l0,0l0,0c-0.2-0.1-0.5-0.2-0.7-0.2
							c-0.8,0-1.5,0.7-1.5,1.5V185c0,0.8,0.7,1.5,1.5,1.5c0.3,0,0.5-0.1,0.7-0.2l0,0l0,0c0,0,0,0,0,0l10.7-6.3l0,0
							C69,179.7,69.2,179.2,69.2,178.7z"/>
					</g>
				</g>
			</g>
		</g>
	</g>
	<g>
		<g>
			<circle class="st19" cx="60.5" cy="278.5" r="44.4"/>
			<g>
				<path class="st4" d="M38.1,302.7L33.9,314c6.3,4.7,13.8,7.8,22,8.6h9.2c8.2-0.8,15.7-3.9,22-8.6l-4.2-11.3c0,0-11.3-5-22.4-5
					C50.2,297.7,38.1,302.7,38.1,302.7z"/>
				<path class="st4" d="M77.9,277.8c0-1.1,0.2-4,0-5c-1.4-8.5-9-14.9-17.4-14.9c-8.5,0-16.2,6.2-17.4,14.9c-0.1,0.9,0,4,0,5
					c0,0.7,0.2,1.5,0.5,2.6c-1.6,4.1-3.5,7.4-5.5,7.4c2.6,0,6.3,0.7,10.5,1.3c3,3.4,7,6.1,11.9,6.1c4.7,0,8.6-2.5,11.5-5.7
					c6.3-0.7,10.9-1.8,10.9-1.8c-1.8-1.8-3.6-5.2-5.1-8.7C77.9,278.6,77.9,278.2,77.9,277.8z"/>
			</g>
		</g>
		<g class="st17">
			<defs>
				<rect id="SVGID_31_" x="12.7" y="233" class="st17" width="47.9" height="95.1"/>
			</defs>
			<clipPath id="SVGID_16_">
				<use xlink:href="#SVGID_31_"  style="overflow:visible;"/>
			</clipPath>
			<g class="st25">
				<circle class="st19" cx="60.5" cy="278.5" r="44.4"/>
				<g>
					<path class="st4" d="M38.1,302.7L33.9,314c6.3,4.7,13.8,7.8,22,8.6h9.2c8.2-0.8,15.7-3.9,22-8.6l-4.2-11.3c0,0-11.3-5-22.4-5
						C50.2,297.7,38.1,302.7,38.1,302.7z"/>
					<path class="st4" d="M77.9,277.8c0-1.1,0.2-4,0-5c-1.4-8.5-9-14.9-17.4-14.9c-8.5,0-16.2,6.2-17.4,14.9c-0.1,0.9,0,4,0,5
						c0,0.7,0.2,1.5,0.5,2.6c-1.6,4.1-3.5,7.4-5.5,7.4c2.6,0,6.3,0.7,10.5,1.3c3,3.4,7,6.1,11.9,6.1c4.7,0,8.6-2.5,11.5-5.7
						c6.3-0.7,10.9-1.8,10.9-1.8c-1.8-1.8-3.6-5.2-5.1-8.7C77.9,278.6,77.9,278.2,77.9,277.8z"/>
				</g>
			</g>
		</g>
	</g>
</g>
<g id="Creative_Commons_License" class="st41">
</g>
</svg>
