<svg version="1.1" xmlns="http://www.w3.org/2000/svg" xmlns:xlink="http://www.w3.org/1999/xlink" x="0px" y="0px" width="395.8px"
	 height="85.3px" viewBox="0 0 395.8 85.3" style="enable-background:new 0 0 395.8 85.3;" xml:space="preserve">
<style type="text/css">
	.st0{fill:#FFFFFF;}
	.st1{display:none;}
	.st2{display:inline;}
</style>


<path id="i1" class="st0" d="M205.8,4.3l-45.2,45.2l-0.4,0.4l-0.9,0.9l-0.7,0.7L190.1,83l49.2-49.2L207.8,2.3L206.1,4L205.8,4.3L205.8,4.3
z M205.8,8.2v38c0,1.7-1.5,3.2-3.2,3.2l-38,0L205.8,8.2L205.8,8.2z M163.4,52.3l25.5,0l0,25.5L163.4,52.3L163.4,52.3z M191.7,77.5
l0-25.2h10.9c1.6,0,3.1-0.6,4.3-1.8s1.8-2.7,1.8-4.3V35.4h25.2L191.7,77.5L191.7,77.5z M234.2,32.6l-25.5,0l0-25.5L234.2,32.6
L234.2,32.6z"/>

<path class="st0" d="M4.2,47.5h-1c-0.8,0-1.5-0.7-1.5-1.5s0.7-1.5,1.5-1.5h1c0.8,0,1.5,0.7,1.5,1.5S5.1,47.5,4.2,47.5z"/>

<path class="st0" d="M139.8,47.5h-1.9c-0.8,0-1.5-0.7-1.5-1.5s0.7-1.5,1.5-1.5h1.9c0.8,0,1.5,0.7,1.5,1.5S140.7,47.5,139.8,47.5z
M130.2,47.5h-1.9c-0.8,0-1.5-0.7-1.5-1.5s0.7-1.5,1.5-1.5h1.9c0.8,0,1.5,0.7,1.5,1.5S131,47.5,130.2,47.5z M120.5,47.5h-1.9
c-0.8,0-1.5-0.7-1.5-1.5s0.7-1.5,1.5-1.5h1.9c0.8,0,1.5,0.7,1.5,1.5S121.3,47.5,120.5,47.5z M110.8,47.5h-1.9
c-0.8,0-1.5-0.7-1.5-1.5s0.7-1.5,1.5-1.5h1.9c0.8,0,1.5,0.7,1.5,1.5S111.6,47.5,110.8,47.5z M101.1,47.5h-1.9
c-0.8,0-1.5-0.7-1.5-1.5s0.7-1.5,1.5-1.5h1.9c0.8,0,1.5,0.7,1.5,1.5S101.9,47.5,101.1,47.5z M91.4,47.5h-1.9
c-0.8,0-1.5-0.7-1.5-1.5s0.7-1.5,1.5-1.5h1.9c0.8,0,1.5,0.7,1.5,1.5S92.2,47.5,91.4,47.5z M81.7,47.5h-1.9
c-0.8,0-1.5-0.7-1.5-1.5s0.7-1.5,1.5-1.5h1.9c0.8,0,1.5,0.7,1.5,1.5S82.6,47.5,81.7,47.5z M72,47.5h-1.9c-0.8,0-1.5-0.7-1.5-1.5
s0.7-1.5,1.5-1.5H72c0.8,0,1.5,0.7,1.5,1.5S72.9,47.5,72,47.5z M62.4,47.5h-1.9c-0.8,0-1.5-0.7-1.5-1.5s0.7-1.5,1.5-1.5h1.9
c0.8,0,1.5,0.7,1.5,1.5S63.2,47.5,62.4,47.5z M52.7,47.5h-1.9c-0.8,0-1.5-0.7-1.5-1.5s0.7-1.5,1.5-1.5h1.9c0.8,0,1.5,0.7,1.5,1.5
S53.5,47.5,52.7,47.5z M43,47.5h-1.9c-0.8,0-1.5-0.7-1.5-1.5s0.7-1.5,1.5-1.5H43c0.8,0,1.5,0.7,1.5,1.5S43.8,47.5,43,47.5z
M33.3,47.5h-1.9c-0.8,0-1.5-0.7-1.5-1.5s0.7-1.5,1.5-1.5h1.9c0.8,0,1.5,0.7,1.5,1.5S34.1,47.5,33.3,47.5z M23.6,47.5h-1.9
c-0.8,0-1.5-0.7-1.5-1.5s0.7-1.5,1.5-1.5h1.9c0.8,0,1.5,0.7,1.5,1.5S24.4,47.5,23.6,47.5z M13.9,47.5H12c-0.8,0-1.5-0.7-1.5-1.5
s0.7-1.5,1.5-1.5h1.9c0.8,0,1.5,0.7,1.5,1.5S14.8,47.5,13.9,47.5z"/>

<path id="i2" class="st0" d="M148.6,47.5h-1c-0.8,0-1.5-0.7-1.5-1.5s0.7-1.5,1.5-1.5h1c0.8,0,1.5,0.7,1.5,1.5S149.4,47.5,148.6,47.5z"/>

<path id="i3" class="st0" d="M248.9,47.5h-1c-0.8,0-1.5-0.7-1.5-1.5s0.7-1.5,1.5-1.5h1c0.8,0,1.5,0.7,1.5,1.5S249.7,47.5,248.9,47.5z"/>

<path id="i4" class="st0" d="M364.5,47.5h-1.9c-0.8,0-1.5-0.7-1.5-1.5s0.7-1.5,1.5-1.5h1.9c0.8,0,1.5,0.7,1.5,1.5S365.4,47.5,364.5,47.5z
M354.9,47.5H353c-0.8,0-1.5-0.7-1.5-1.5s0.7-1.5,1.5-1.5h1.9c0.8,0,1.5,0.7,1.5,1.5S355.7,47.5,354.9,47.5z M345.3,47.5h-1.9
c-0.8,0-1.5-0.7-1.5-1.5s0.7-1.5,1.5-1.5h1.9c0.8,0,1.5,0.7,1.5,1.5S346.1,47.5,345.3,47.5z M335.6,47.5h-1.9
c-0.8,0-1.5-0.7-1.5-1.5s0.7-1.5,1.5-1.5h1.9c0.8,0,1.5,0.7,1.5,1.5S336.5,47.5,335.6,47.5z M326,47.5h-1.9
c-0.8,0-1.5-0.7-1.5-1.5s0.7-1.5,1.5-1.5h1.9c0.8,0,1.5,0.7,1.5,1.5S326.8,47.5,326,47.5z M316.4,47.5h-1.9
c-0.8,0-1.5-0.7-1.5-1.5s0.7-1.5,1.5-1.5h1.9c0.8,0,1.5,0.7,1.5,1.5S317.2,47.5,316.4,47.5z M306.7,47.5h-1.9
c-0.8,0-1.5-0.7-1.5-1.5s0.7-1.5,1.5-1.5h1.9c0.8,0,1.5,0.7,1.5,1.5S307.6,47.5,306.7,47.5z M297.1,47.5h-1.9
c-0.8,0-1.5-0.7-1.5-1.5s0.7-1.5,1.5-1.5h1.9c0.8,0,1.5,0.7,1.5,1.5S297.9,47.5,297.1,47.5z M287.5,47.5h-1.9
c-0.8,0-1.5-0.7-1.5-1.5s0.7-1.5,1.5-1.5h1.9c0.8,0,1.5,0.7,1.5,1.5S288.3,47.5,287.5,47.5z M277.8,47.5h-1.9
c-0.8,0-1.5-0.7-1.5-1.5s0.7-1.5,1.5-1.5h1.9c0.8,0,1.5,0.7,1.5,1.5S278.7,47.5,277.8,47.5z M268.2,47.5h-1.9
c-0.8,0-1.5-0.7-1.5-1.5s0.7-1.5,1.5-1.5h1.9c0.8,0,1.5,0.7,1.5,1.5S269,47.5,268.2,47.5z M258.6,47.5h-1.9
c-0.8,0-1.5-0.7-1.5-1.5s0.7-1.5,1.5-1.5h1.9c0.8,0,1.5,0.7,1.5,1.5S259.4,47.5,258.6,47.5z"/>

<path id="i5" class="st0" d="M373.2,47.5h-1c-0.8,0-1.5-0.7-1.5-1.5s0.7-1.5,1.5-1.5h1c0.8,0,1.5,0.7,1.5,1.5S374.1,47.5,373.2,47.5z"/>

<path id="i6" class="st0" d="M392.6,47.8c-0.3,0-0.6-0.1-0.9-0.3l-23-16.7c-0.7-0.5-0.8-1.4-0.3-2.1c0.5-0.7,1.4-0.8,2.1-0.3l23,16.7
c0.7,0.5,0.8,1.4,0.3,2.1C393.5,47.6,393,47.8,392.6,47.8z"/>

<path id="i7" class="st0" d="M368.3,62.6c-0.5,0-1-0.3-1.3-0.7c-0.4-0.7-0.2-1.6,0.5-2.1l24.2-14.8c0.7-0.4,1.6-0.2,2.1,0.5
s0.2,1.6-0.5,2.1l-24.2,14.8C368.9,62.6,368.6,62.6,368.3,62.6z"/>

</svg>
